<svg width="128" height="144" viewBox="0 0 128 144" fill="none" xmlns="http://www.w3.org/2000/svg">
<path fill-rule="evenodd" clip-rule="evenodd" d="M0 5.5C34 0 64 0 64 0C64 0 94 0 128 5.5V74.5C128 131.5 64 144 64 144C64 144 0 131.5 0 74.5V5.5ZM64 6C64 6 36.8125 6 6 10.9653V73.257C6 124.715 64 136 64 136C64 136 122 124.715 122 73.257V10.9653C91.1875 6 64 6 64 6Z" fill="white"/>
<path d="M64 6C64 6 36.8125 6 6 10.9653V73.257C6 124.715 64 136 64 136C64 136 122 124.715 122 73.257V10.9653C91.1875 6 64 6 64 6Z" fill="white" fill-opacity="0.2"/>
<path d="M33.5 85C33 71 45 71 63.5 71H63.5001C82.0001 71 94 71 93.5 85C96.5002 85 101 86.1241 101 77C101 66.5 96.7632 66.5 95.5 60.5C94.2369 54.5 90.5 32 63.5 32C36.5 32 32.7632 54.5 31.5 60.5C30.2369 66.5 26 66.5 26 77C26 86.1242 30.4998 85 33.5 85Z" fill="white"/>
</svg>
