<svg width="16" height="15" viewBox="0 0 16 15" fill="none" xmlns="http://www.w3.org/2000/svg">
<path d="M10.0557 0.465999C8.75455 0.0960584 7.43681 0.113603 6.21696 0.436424C6.21144 0.437928 6.20642 0.439933 6.20089 0.441437C5.98102 0.500086 5.76566 0.56876 5.55382 0.64746C5.53725 0.653977 5.52169 0.657987 5.50412 0.663C5.47601 0.674028 5.44991 0.68656 5.42129 0.696585C5.29529 0.747715 5.16929 0.797341 5.0468 0.853985C4.98456 0.884062 4.92632 0.915141 4.86558 0.945719C4.61157 1.07104 4.36559 1.20839 4.12865 1.36378C4.11911 1.36879 4.11058 1.37431 4.10104 1.37882C2.84053 2.20342 1.86816 3.43304 1.28183 4.91832C0.83756 6.04418 0.843584 7.07681 0.843584 7.07681C0.752722 9.29344 1.70852 11.4986 3.45196 13.054L3.47204 13.0279C5.40473 14.6049 8.09392 15.1513 10.5989 14.2114C11.1687 13.9979 11.6892 13.7142 12.1676 13.3833C12.1882 13.3708 12.2068 13.3558 12.2264 13.3427C12.3624 13.2475 12.4944 13.1497 12.6219 13.0465C12.7479 12.9452 12.8714 12.84 12.9899 12.7302C13.0301 12.6931 13.0672 12.655 13.1064 12.6159C13.9949 11.7637 14.6771 10.676 15.0396 9.40623C16.1369 5.56346 13.905 1.56028 10.0557 0.465999ZM11.1677 8.0969H13.7549C13.644 9.03328 13.3082 9.92906 12.7755 10.7005C12.7334 10.7592 12.6912 10.8168 12.647 10.8745C12.5677 10.9802 12.4899 11.0855 12.4031 11.1858C12.262 11.3467 12.1139 11.5026 11.9558 11.6459C11.9242 11.6755 11.8885 11.7021 11.8559 11.7311C11.6862 11.879 11.5105 12.0194 11.3253 12.1462C11.3177 12.1517 11.3117 12.1567 11.3032 12.1612C10.6626 12.5948 9.93675 12.8991 9.1702 13.049L9.17422 13.0625C9.03015 13.0916 8.88708 13.1046 8.74451 13.1212V10.5622C8.74451 10.1952 8.44582 9.89698 8.07836 9.89698C7.7109 9.89698 7.41221 10.1952 7.41221 10.5622V13.1272C6.23754 12.9913 5.12712 12.5046 4.2421 11.7201C3.27827 10.7887 2.60007 9.47741 2.40831 8.0964H4.9459C5.31387 8.0964 5.61205 7.79814 5.61205 7.43121C5.61205 7.06428 5.31387 6.76602 4.9459 6.76602H2.37819C2.40178 6.52641 2.43993 6.2888 2.49666 6.05321C2.99163 4.33233 4.25164 2.7468 5.99909 2.0786C6.01666 2.07158 6.03524 2.06506 6.0523 2.05755C6.50209 1.89112 6.95791 1.79187 7.41221 1.73974V4.36942C7.41221 4.73686 7.7109 5.03462 8.07836 5.03462C8.44582 5.03462 8.74451 4.73686 8.74451 4.36942V1.74475C10.8017 1.99589 12.6521 3.34783 13.4317 5.41959C13.5983 5.86372 13.7042 6.31537 13.757 6.76652H11.1677C10.8002 6.76652 10.502 7.06478 10.502 7.43171C10.502 7.79864 10.8002 8.0969 11.1677 8.0969Z" fill="white"/>
</svg>
