<svg width="15" height="19" viewBox="0 0 15 19" fill="none" xmlns="http://www.w3.org/2000/svg">
<path fill-rule="evenodd" clip-rule="evenodd" d="M14.9783 10.142C14.9916 9.12945 14.6267 9.10536 14.6041 8.48281C14.5918 8.17246 14.6296 7.29977 14.6041 6.45673C14.5766 5.6174 14.485 4.80864 14.416 4.61409C14.2761 4.22129 14.1154 3.57557 12.9122 2.58616C11.5946 1.5041 9.05586 0.582319 7.64661 0.559159C6.2364 0.535998 4.59274 1.22803 3.32147 2.03494C2.05305 2.84 1.74775 3.18555 1.25437 3.87666C0.760043 4.56777 0.571007 5.05228 0.688209 6.27238C0.806356 7.49432 0.833767 7.17193 0.8763 8.29938C0.912216 9.23321 0.48027 9.52132 0.501064 10.142C0.53131 11.0712 0.887642 11.263 0.8763 11.6169C0.868738 11.8485 0.453805 12.1385 0.501064 12.9065C0.549268 13.6902 0.712784 13.8986 2.19388 14.75C3.15512 15.304 4.28555 15.5115 4.26192 15.8562C4.22695 16.3611 4.09652 17.1911 4.07478 17.6988C4.05115 18.2056 4.2865 18.2519 4.8262 18.4353C5.36684 18.6206 6.63527 19.0125 8.02373 18.9884C9.41125 18.9671 9.99821 18.6891 10.656 18.4353C11.3129 18.1824 11.4075 17.9526 11.4075 17.5135C11.4075 17.0763 11.0332 16.1795 11.0332 15.8562C11.0332 15.5328 12.1589 15.1873 13.4765 14.5647C14.794 13.945 14.778 13.3215 14.794 12.9055C14.8214 12.1227 14.4179 11.9383 14.4179 11.616C14.415 10.9869 14.9708 10.8795 14.9783 10.142ZM3.88385 11.9837C3.22601 12.0078 1.81581 12.0078 1.81581 10.142C1.81581 7.55824 3.22507 7.26272 4.26003 7.19323C5.295 7.12283 5.43489 7.0098 5.95285 7.37759C6.88101 8.03998 6.82241 9.2119 6.51712 10.1411C6.29311 10.8211 6.04642 11.087 5.57667 11.4316C5.10691 11.779 4.54453 11.9624 3.88385 11.9837ZM8.21088 14.9344L7.95284 13.9931L7.55303 13.9968L7.26948 14.9344C6.1882 14.6453 5.75341 14.2201 5.7657 13.6439C5.77799 13.0676 6.10597 12.4683 6.70521 11.9837C7.3054 11.5011 7.4018 11.426 7.83375 11.4316C8.24585 11.4381 8.28271 11.5159 8.58517 11.8003C9.24017 12.4155 9.66361 12.8249 9.71465 13.643C9.76286 14.4489 8.80917 14.8992 8.21088 14.9344ZM11.5946 11.9837C10.9368 11.9624 10.3725 11.7781 9.90274 11.4316C9.43204 11.087 9.15511 10.8313 8.96229 10.1411C8.71844 9.27397 8.5984 8.03905 9.52656 7.37759C10.0445 7.0098 10.1854 7.12283 11.2194 7.19323C12.2534 7.26179 13.6636 7.55824 13.6636 10.142C13.6627 12.0088 12.2525 12.0088 11.5946 11.9837Z" fill="white"/>
</svg>
