<svg xmlns="http://www.w3.org/2000/svg" width="24" height="32" fill-rule="evenodd" fill="#fff"><path d="M17.92 13.187l-1.528-.88v1.796l-.917.84v1.795h-.382v1.835h.382v1.9h-.382v1.834h.382v1.9h-.382v1.833h.382v1.758l.917 1.566v1.3c0 .356-.178.536-.536.536h-6.8c-.356 0-.534-.18-.534-.536v-1.3L9.4 27.82v-1.758h.42V24.23H9.4v-1.9h.42v-1.834H9.4v-1.9h.42V16.74H9.4v-1.795l-.878-.84V11.66c0-.356.178-.535.534-.535h.535l1.146-.993V8.6c-.612-.075-.917-.368-.917-.878 0-.33.114-.548.344-.65.127-.076.382-.115.764-.115h4.202l3.554 5.694v12.034l-1.795.88c-.255.127-.446.09-.573-.115-.128-.23-.077-.445.152-.65.204-.178.5-.382.917-.61l.536-.266V13.187z"/><path fill-opacity=".85" d="M5.847 3.062v2.37l2.025-1.184.84 1.45L6.61 6.92l2.102 1.222-.84 1.452L5.847 8.45v2.37h-1.72V8.374L1.99 9.595l-.84-1.452 2.14-1.222-2.14-1.223.84-1.45 2.138 1.26V3.062h1.72zm17.88 5.195l-1.528.918 1.566.878-.65 1.11-1.528-.88v1.757h-1.26v-1.796l-1.605.918-.61-1.11 1.53-.878-1.53-.918.65-1.107 1.566.917V6.234h1.26V8.03l1.528-.88.61 1.107zM5.006 19.72l-1.528-.878V20.6h-1.26v-1.795l-1.605.916-.612-1.107 1.566-.88-1.566-.918.65-1.106 1.566.916v-1.834h1.26v1.796l1.528-.878.612 1.106-1.53.918 1.567.88-.65 1.107z"/></svg>