<svg xmlns="http://www.w3.org/2000/svg" width="25.458" height="32" fill-rule="evenodd" fill="#fff"><path fill-opacity=".302" d="M19.192 7.8l5.917.906-6.023 4.12 5.695 4.542-5.32.705 1.238 6.83-2.734-1.576.01-10.596L14.536 7h-4.232c-.385 0-.64.038-.77.116-.23.102-.347.32-.347.654 0 .513.308.808.924.885v1.54l-1.156 1h-.538c-.36 0-.54.18-.54.54l.38 2.323.64.945-.136 1.85h.423V18.7h-.422v.73l.045.533.067.45-5.995 2.6 2.458-6.787L0 13.574l5.76-2.34-4.113-6.218 7.263 1L10.26.4l3.7 5.175 6.03-2.97-.787 5.215zm-1.847 5.464V23l-3.002-1.854.135-1 .268-.74-.067-.608-.304-.17v-1.855l.472-.338-.27-1.52 1.16-.754-.082-2.013 1.69 1.105z"/><path d="M17.276 13.185l-1.54-.886v1.8l-.923.847v1.808h-.384v1.848h.384v1.924h-.384v1.848h.384v1.924h-.384v1.848h.384v1.77l.923 1.578v1.308c0 .36-.18.54-.54.54h-6.85c-.36 0-.54-.18-.54-.54v-1.308l.885-1.578v-1.77h.424v-1.848h-.423v-1.924h.424v-1.848h-.424V18.6h.424v-1.848h-.424v-1.808l-.885-.847v-2.464c0-.36.18-.538.54-.538h.538l1.155-1v-1.54c-.616-.076-.923-.37-.923-.882 0-.333.115-.553.346-.655.128-.077.385-.115.77-.115h4.232l3.58 5.734v12.122l-1.81.886c-.257.128-.45.1-.577-.116-.13-.23-.078-.448.153-.653.206-.18.514-.386.923-.616l.54-.27V13.185z"/></svg>