<svg xmlns="http://www.w3.org/2000/svg" width="19.438" height="32"><path fill-rule="evenodd" fill="#fff" d="M14.917 11.512v.072c.022.023.034.048.034.072s.012.047.036.072v.035c.025.023.037.048.037.072l.07.07v.036c0 .024.013.035.036.035v.072c.025.023.036.048.036.072s.012.048.037.073l.035.035v.07c.025.023.037.048.037.07l.036.037v.108l.072.07c0 .024.01.047.034.073l.036.036v.07c.024.023.037.048.037.072v.036c.023 0 .035.01.035.035v.07c.025.023.036.048.036.072.024.023.036.047.036.072.023 0 .036.013.036.036.023.023.037.047.037.072.023.024.034.047.034.07h.07c0 .024.024.037.073.037l.07.07c.023.024.037.047.037.072.022.024.035.048.035.07v.073c.023.022.036.046.036.07s.013.048.036.07v.038c0 .023.01.046.036.07v.073c.024.024.036.047.036.07.024 0 .037.012.037.035v.037c.024.023.036.046.036.07v.073l.035.036c0 .023.01.045.037.07 0 .024.012.05.036.072v.072c.025 0 .036.01.036.036l.035.037c.025.023.036.046.036.07.024.026.036.048.036.07v.037c.023.023.036.047.036.07.023.025.037.05.037.072l.034.035c.025.024.036.047.036.07l.037.038v.072c.023.023.034.047.034.07l.037.036c0 .022.012.047.036.072 0 .023.01.05.034.07v.036c.026.024.038.047.038.072l.034.036c.025.023.037.047.037.07s.012.036.035.036v.072c.024.024.036.047.036.072.024.023.036.048.036.072l.037.035c.023.024.036.05.036.072l.035.036v.072l.035.035v.07c0 .024.013.05.037.072v.073c.023 0 .036.01.036.034.024.023.035.048.035.073v.035l.11.11v.07c0 .024.012.048.035.07v.072c.024 0 .037.012.037.035v.073l.035.037v.07l.036.04c0 .022.012.045.035.07 0 .023.013.047.037.07v.11c.023.023.036.048.036.07l.037.037.072.07v.037c.024.024.035.048.035.072v.07l.036.036c.024.023.036.05.036.07v.074l.037.035v.035l.07.073c0 .023.012.047.036.07 0 .024.012.05.035.074 0 .022.013.036.036.036v.143l.07.072.072.07v.072l.072.074v.034c.023.024.035.048.035.073.025.023.037.048.037.07v.036c.023.024.047.037.072.037 0 .024.012.048.036.072 0 .023.012.047.036.07 0 .024.01.048.036.07v.108c.023.023.034.047.034.07l.037.037c.024 0 .047.01.072.036v.07c.023.025.035.048.035.072l.036.035v.145c.025 0 .05.01.073.034 0 .025.01.05.034.072.024 0 .036.01.036.035s.013.048.036.07v.36c-.023 0-.036.01-.036.034v.072l-.036.036v4.152l.036.037v.07c0 .025.013.048.036.07v1.04l.036.036v.07l.036.038v1.54l.035.036c0 .023.012.048.036.072v1.29c-.024 0-.036.01-.036.035v.072c-.024.022-.035.046-.035.072v1.397c0 .025-.013.048-.036.07v.072c0 .023-.013.047-.036.072l-.036.036c0 .024-.012.047-.036.07s-.034.048-.034.072c-.024.025-.037.048-.037.072h-.037c0 .024-.01.048-.036.072h-.043a.41.41 0 0 0-.143.071c-.048 0-.095.012-.144.035h-.25c-.048-.023-.094-.035-.142-.035-.024-.023-.06-.046-.107-.07 0-.024-.013-.048-.037-.072V30.5l.037-.035.07-.072.07-.07h.143l.07-.072v-6.375c-.022-.023-.035-.046-.035-.07-.024-.024-.047-.037-.072-.037v-.932c-.023-.024-.035-.046-.035-.07v-.037c-.024-.023-.036-.047-.036-.072V21.54l-.07-.07v-.432c-.024-.022-.036-.047-.036-.07-.024-.024-.035-.05-.035-.072v-.288l-.036-.035c-.024-.024-.037-.05-.037-.072v-.214c-.024-.024-.036-.047-.036-.072v-.07c-.024 0-.036-.013-.036-.036s-.01-.048-.035-.073v-.07c-.025 0-.048-.012-.072-.036v-.43c-.025 0-.037-.01-.037-.036-.024 0-.036-.012-.036-.037s-.012-.047-.037-.07c0-.024-.01-.047-.035-.072v-.07c-.023 0-.036-.012-.036-.037s-.01-.048-.035-.07-.037-.048-.037-.073c-.023 0-.035-.01-.035-.035v-.035c-.024-.024-.037-.047-.037-.07l-.072-.072c0-.024-.01-.036-.035-.036 0-.025-.013-.048-.036-.072v-.07c-.024-.025-.037-.05-.037-.073v-.034l-.032-.036c0-.024-.01-.047-.035-.07 0-.024-.013-.05-.036-.07 0-.027-.013-.037-.037-.037v-.072c-.023-.024-.036-.048-.036-.073-.024-.023-.036-.047-.036-.07h-.035v-.073c0-.025-.01-.047-.037-.07v-.073c-.023-.023-.045-.035-.072-.035 0-.023-.01-.048-.034-.07h-.073c-.023-.025-.058-.05-.107-.074-.024-.022-.034-.047-.034-.07a.1.1 0 0 1-.073-.036v-.07c-.024-.024-.036-.047-.036-.072l-.036-.037v-.07c-.023 0-.046-.014-.07-.037l-.073-.07c0-.025-.012-.047-.035-.072v-.037c0-.023-.012-.048-.036-.07 0-.024-.012-.047-.037-.07 0-.027-.012-.04-.036-.04v-.07c-.025 0-.036-.012-.036-.037l-.07-.073v-.034c0-.023-.013-.048-.035-.072v-.07l-.072-.07-.036-.037-.073-.072v-.142l-.07-.073-.07-.072c0-.023-.013-.045-.036-.07l-.036-.035c-.023-.024-.036-.048-.036-.072l-.035-.036v-.072c-.024 0-.037-.013-.037-.035l-.07-.072c0-.024-.013-.047-.036-.072s-.036-.048-.036-.072l-.036-.036c-.024-.023-.037-.047-.037-.07-.023 0-.047-.01-.072-.036v-.072c-.024 0-.036-.012-.036-.036-.023-.022-.036-.048-.036-.07l-.07-.072c0-.024-.012-.036-.037-.036 0-.023-.012-.048-.036-.07s-.047-.05-.07-.072l-.036-.038-.072-.07-.033-.035c0-.022-.013-.046-.038-.072v-.07c-.023-.023-.047-.037-.07-.037 0-.023-.012-.045-.036-.07s-.037-.048-.037-.07c-.023 0-.036-.012-.036-.037-.023-.025-.048-.036-.07-.036-.025-.024-.036-.048-.036-.072s-.013-.048-.036-.072l-2.758.036c0 .024-.012.036-.036.036 0 .023-.01.047-.035.072v2.08h.143a.66.66 0 0 1 .214.035c0 .024.012.037.037.037.094.022.166.034.215.034a.32.32 0 0 1 .143.037h.072a2.94 2.94 0 0 0 .465.035h.18c.022.024.047.035.07.035.024.025.047.038.07.038.048 0 .085.012.108.035h.037c.095.024.178.037.25.037a.39.39 0 0 1 .179.036c.023.023.048.034.07.034h.072c.048 0 .083.012.107.04h.072a.34.34 0 0 0 .143.032c.048 0 .11.013.18.037l.072.07c.047.024.083.037.106.037h.073a.64.64 0 0 1 .213.037c.025.022.05.047.073.07s.058.048.107.072l.143.07c.024 0 .06.012.108.037.023.024.06.036.108.036l.142.07c0 .025.025.05.072.072l.036.037.07.07.07.072v.035c.05.024.084.048.11.073s.058.035.107.035c0 .024.023.047.07.07 0 .024.01.048.036.073.024 0 .048.013.072.036s.036.045.036.07l.07.073c.024.023.048.036.072.036l.07.07.036.037.073.07c0 .023.01.038.034.038 0 .023.013.047.036.07s.037.047.037.072c.023.023.034.048.034.07l.037.037c.024.024.036.048.036.072l.034.036v.07l.038.035v.07c.022.023.034.048.034.07.025.024.037.05.037.073v.036c.023.024.035.05.035.07v.037l.072.07v.037c0 .024.012.047.037.07v.143c.023 0 .036.01.036.035.024.023.035.048.035.07v.037c.024.024.035.047.035.07v.107c0 .023.013.05.037.072v.107c.023.025.036.048.036.072l.035.036v.07c.025 0 .036.012.036.036v.07c0 .025.013.05.036.073v.036c0 .023.012.048.037.072v.106c0 .025.012.048.035.073v.036c.024.023.037.048.037.07.024.024.035.048.035.072l.036.035c.024.024.035.048.035.072.025.024.037.05.037.072v.072c0 .024.012.048.036.07v.072c0 .023.01.05.037.073v.035c.023.024.035.048.035.072.024.024.037.05.037.073v.034l.035.036v.322c.023.025.036.048.036.072v.035l.036.037v1.72c-.024.025-.036.047-.036.072-.024.023-.036.046-.036.07v.394c0 .024-.01.05-.035.072v.07c0 .024-.013.046-.037.072l-.035.035v.143l-.037.037v.035c-.024.023-.036.048-.036.072v.178c-.024.023-.037.05-.037.072-.023.024-.035.048-.035.072l-.036.037v.034c-.023.024-.035.048-.035.072v.072c0 .023-.012.035-.037.035v.073c-.023.023-.035.047-.035.07v.07l-.072.073c0 .023-.01.048-.036.072v.07a.03.03 0 0 1-.035.035c0 .025-.013.05-.036.074 0 .023-.012.048-.037.072v.07l-.033.037v.035l-.07.073v.07c-.024 0-.037.013-.037.036v.072c-.023.023-.036.046-.036.07s-.012.048-.036.073v.037l-.035.035c0 .023-.01.05-.037.072v.07l-.034.036c0 .022-.01.048-.038.072v.07l-.034.036c-.024.023-.036.048-.036.07l-.037.037c0 .023-.01.047-.034.072v.072l-.037.036c0 .022-.01.048-.036.072 0 .023-.012.046-.034.07 0 .023-.014.036-.037.036-.024.024-.036.05-.036.072s-.012.037-.036.037c0 .022-.01.046-.036.07 0 .024-.01.037-.035.037 0 .023-.01.047-.036.07 0 .024-.012.05-.036.072l-.07.072v.036c-.024.024-.036.047-.036.072-.024.024-.048.036-.072.036 0 .023-.012.048-.036.07 0 .025-.012.038-.036.038 0 .022-.012.046-.036.07v.07l-.072.073c-.023 0-.047.01-.07.036l-.073.07v.035l-.07.073c0 .025-.01.037-.034.037 0 .023-.014.047-.037.07 0 .024-.013.047-.036.072l-.072.07-.035.037c-.024.024-.037.048-.037.072-.047.024-.083.035-.106.035-.025.025-.036.048-.036.073l-.036.034a.42.42 0 0 0-.108.071.41.41 0 0 0-.107.073l-.072.07c-.024 0-.048.01-.07.037s-.037.046-.037.07c-.024.023-.047.035-.07.035l-.144.07c-.024 0-.06.013-.108.037s-.084.047-.106.072l-.072.072c-.023.025-.047.035-.07.035-.05.024-.085.05-.11.072l-.143.073c-.047.022-.083.035-.107.035 0 .024-.012.047-.035.07l-.037.036c-.047.024-.083.048-.106.072s-.05.036-.073.036c-.048.024-.095.037-.143.037-.024.023-.048.035-.072.035-.05 0-.083.012-.107.036-.07.024-.12.05-.144.072-.048.024-.084.036-.108.036-.047.023-.084.035-.106.035-.073 0-.132.012-.18.037h-.072c-.046.023-.094.036-.14.036-.05.024-.098.036-.146.036-.046.023-.083.046-.106.07l-.144.072-.07.035h-.215c-.025.024-.037.048-.037.072h-.07c-.047.025-.096.037-.144.037-.025 0-.06.01-.108.034h-.07c-.024.024-.06.035-.107.035-.095 0-.18.013-.25.037h-.107c-.024.025-.06.036-.107.036s-.096.012-.144.037h-.037c-.046.023-.093.035-.14.035s-.11.012-.18.035c-.048.023-.083.037-.107.037-.024.023-.06.034-.108.034h-.322l-.143.072c-.048.024-.084.037-.108.037-.023.024-.06.037-.107.037-.072 0-.155.012-.25.036h-.036c-.023.023-.06.036-.108.036H7.54a.33.33 0 0 1-.144-.036H7.36c-.024-.024-.05-.036-.073-.036-.072-.024-.13-.037-.18-.037l-.143-.072c0-.024-.012-.037-.036-.037h-.034a.43.43 0 0 0-.18-.034.44.44 0 0 0-.106-.072l-.037-.035c-.047-.024-.084-.037-.107-.037a.71.71 0 0 0-.216-.036l-.07-.037h-.036c-.073-.023-.13-.035-.178-.035l-.144-.07-.143-.072H5.57l-.214-.072-.07-.072h-.036c-.072-.026-.12-.037-.144-.037l-.214-.072c-.025 0-.05-.012-.073-.037H4.78c-.072-.023-.12-.035-.143-.035-.048-.023-.107-.048-.18-.072-.023-.023-.06-.046-.108-.07-.047 0-.094-.012-.142-.035s-.108-.048-.18-.073c-.023-.024-.033-.048-.033-.072a.34.34 0 0 0-.145-.036l-.072-.07c-.024 0-.048-.013-.072-.035l-.07-.073c-.048-.023-.072-.047-.072-.072-.024 0-.048-.01-.072-.035l-.072-.072a.96.96 0 0 0-.071-.072.15.15 0 0 0-.107-.037.51.51 0 0 0-.106-.071c-.024 0-.037-.012-.037-.035l-.07-.07c-.024-.026-.05-.037-.073-.037 0-.023-.012-.047-.035-.07s-.037-.048-.037-.073l-.07-.07c-.023-.023-.047-.034-.07-.034l-.07-.073c-.023 0-.037-.01-.037-.035l-.143-.072c0-.024-.012-.037-.034-.037-.024-.023-.038-.047-.038-.07l-.072-.072-.072-.07c-.022 0-.046-.012-.07-.037 0-.025-.013-.048-.036-.073-.023 0-.048-.01-.072-.035 0-.023-.012-.046-.036-.07 0-.025-.012-.036-.036-.036 0-.023-.012-.048-.036-.073s-.035-.046-.035-.07l-.073-.07c-.023 0-.047-.012-.07-.038s-.037-.047-.037-.07c-.024 0-.036-.012-.036-.036v-.072L1.7 28.02v-.072l-.072-.072c0-.023-.012-.047-.036-.07-.023 0-.036-.013-.036-.037-.024-.023-.035-.048-.035-.07l-.036-.037c0-.023-.013-.047-.037-.072l-.07-.07-.07-.072c0-.024-.013-.048-.036-.072v-.107c0-.024-.013-.047-.036-.072 0-.023-.012-.048-.036-.07-.024 0-.036-.01-.036-.036-.024 0-.05-.012-.07-.035v-.072c0-.024-.012-.047-.037-.07v-.036c0-.024-.01-.048-.035-.073 0-.023-.012-.047-.037-.07 0-.024-.012-.037-.035-.037v-.11c0-.023-.012-.048-.036-.07v-.072c-.025 0-.037-.01-.037-.036s-.01-.046-.035-.07v-.07c0-.025-.013-.037-.037-.037v-.07c-.023 0-.035-.013-.035-.037v-.07l-.036-.038v-.07c0-.024-.012-.047-.036-.07 0-.024-.012-.048-.035-.07l-.036-.038v-.106c0-.023-.013-.048-.037-.07v-.25c-.022 0-.034-.014-.034-.037l-.072-.072v-.395c-.023-.024-.036-.048-.036-.07v-.035C.422 24.7.4 24.676.4 24.652v-.108c0-.023-.013-.046-.037-.07v-.037c0-.023-.012-.046-.036-.07V22.11c.024-.024.036-.047.036-.072S.385 22 .4 21.965v-.393c0-.023.012-.048.036-.072v-.035c.024 0 .036-.013.036-.037v-.323l.072-.072H.6v-.32c0-.024.013-.05.037-.072v-.215c.023-.023.036-.047.036-.072.023 0 .035-.013.035-.035l.072-.072v-.072c0-.023.012-.034.035-.034v-.18c.023-.023.037-.05.037-.073v-.036l.07-.072c0-.023.013-.048.036-.07v-.035c.023 0 .035-.01.035-.035.024-.026.037-.05.037-.07.024-.026.035-.05.035-.073v-.108c.025-.024.037-.047.037-.072v-.107c.022 0 .036-.012.036-.037.023-.023.035-.048.035-.07l.072-.073.036-.035v-.07c.023-.024.036-.048.036-.07l.07-.072.07-.067c.024-.023.037-.047.037-.07.023-.025.036-.05.036-.073l.035-.034c.024-.025.036-.05.036-.074.024-.023.036-.047.036-.072l.072-.07c.023 0 .035-.013.035-.036.024 0 .05-.013.073-.036l.07-.073.073-.07.035-.036c.024-.025.036-.05.036-.074l.072-.07.072-.073c.023 0 .036-.012.036-.035.024 0 .048-.013.07-.035l.072-.074.072-.07.036-.033c.022-.023.034-.048.034-.07l.07-.072c.024-.024.05-.037.072-.037 0-.023.014-.048.037-.07.047 0 .095-.014.142-.037l.07-.07c.025-.025.06-.047.11-.072h.215l.07-.072.143-.073c.072-.023.12-.046.145-.07.047 0 .096-.01.142-.034s.108-.036.18-.036c.024 0 .048-.012.072-.037h.037c.047-.023.093-.035.14-.035.047-.025.084-.038.108-.038a.32.32 0 0 1 .142-.035h.108c.048 0 .095-.012.143-.035h.036c.048-.024.095-.037.143-.037.096-.023.203-.034.322-.034.025-.025.06-.05.11-.072.046 0 .095-.012.143-.036.023-.025.047-.037.07-.037.048 0 .084-.013.108-.036l.036-.036h.143c.216 0 .442-.01.68-.035h.18v-.035h.356v-1.363c-.023-.023-.036-.046-.036-.07v-.538h-.286c0-.023-.013-.047-.035-.07v-.143H6.5v-4.7a6.68 6.68 0 0 0-.681.035H5.71a.29.29 0 0 1-.142.036h-.142c-.05-.022-.11-.036-.18-.036-.048 0-.083-.01-.11-.035a1.16 1.16 0 0 0-.179-.072c-.024-.023-.036-.047-.036-.07l-.07-.073c-.025 0-.036-.012-.036-.036-.025-.023-.036-.047-.036-.072v-.035c-.024-.024-.035-.05-.035-.07v-.18c0-.023.01-.036.036-.036v-.07c0-.023.01-.046.036-.072l.036-.036.07-.07.036-.036a.32.32 0 0 1 .144-.037h.035v-.32l.037-.036.072-.07c.023-.023.036-.048.036-.072.02-.025.047-.048.07-.073 0-.023.012-.037.036-.037l.07-.07c.048 0 .084-.01.108-.035l.036-.036h.644v-.036c.024-.024.048-.036.073-.036l.07-.07c.047 0 .084-.01.107-.035v-.107h5.264v-.86c.025-.024.06-.036.108-.036v-.035h.93v.25l.036.037v.072c.024.023.036.046.036.07L12.91 7v.036c.024.024.035.047.035.072v.072c0 .022-.01.036-.035.036v.07c-.024.023-.036.047-.036.07-.024.024-.036.048-.036.073v.144h.143l.07.07c.025.025.048.036.073.036.023.024.036.048.036.073.024 0 .048.013.072.036s.036.047.036.07l.037.034c.023.024.035.05.035.073.024.024.037.048.037.073v.036c.024.024.035.048.035.07v.107c0 .023-.01.047-.035.07v.035h.035c0 .024.012.05.035.072v.07c.024.024.037.048.037.073l.035.036v.144c.024.024.037.048.037.07h.036c.023.023.035.048.035.07.024 0 .05.014.072.036s.036.047.036.073l.037.035c.023.023.035.048.035.07l.037.036v.07l.035.036v.073c0 .023.012.047.037.07v.072l.035.035v.072l.035.036v.07l.037.037c0 .024.012.048.035.072v.07l.072.072c.024 0 .037.013.037.035.022.025.034.048.034.072v.107l.037.036.072.07c0 .023.01.047.036.072 0 .023.012.047.035.072v.035c.023.024.036.048.036.072v.036c.024.024.036.047.036.072.022 0 .047.012.07.036v.072c.024.023.036.047.036.072v.07c.024 0 .037.013.037.036.024.022.036.047.036.072v.035c0 .023.01.05.035.074l.036.034c0 .024.012.048.038.072 0 .022.01.047.033.072v.036c.025.023.038.047.038.07.023.023.035.046.035.072l.036.034c-.006.024.007.036.032.036zM1.415 21.896v-.18l-.036.036v.072c-.024.024-.035.048-.035.07v.215c0-.024.012-.05.035-.072v-.072c.025 0 .036-.01.036-.035v-.036z"/></svg>