<svg xmlns="http://www.w3.org/2000/svg" width="12.375" height="32"><path fill-rule="evenodd" fill="#fff" d="M8.277 7.22l.037.037v.072c0 .022.012.035.036.035v.073h.036v.037c.023 0 .036.012.036.036v.11h.036v.073h.036v.073c.024 0 .036.012.036.035v.11l.036.036v.074l.036.036v.038h.037v.07l.035.036v.037c.024 0 .037.012.037.036v.037l.036.035v.11c0 .023.012.036.036.036v.037h.036v.108h.036v.036l.036.037v.035l.036.037v.072l.037.037V9L9 9.037v.037l.036.035v.037l.072.072v.037c.023 0 .036.012.036.036l.035.036V9.5l.036.036v.072l.036.037v.036l.036.036v.036l.033.037v.073h.036v.072c0 .023.013.036.036.036v.11c.024 0 .036.013.036.036v.072c.023 0 .036.014.036.037v.072H9.5v.036l.035.036v.037l.036.037v.035l.036.037v.146l.036.036v.073h.036v.108h.036v.072l.036.036v.036l.036.036v.073c.024 0 .036.013.036.036v.072c0 .024.012.037.036.037v.07l.037.038v.036h.034v.035l.036.037v.035l.037.038v.072h.035v.108l.037.037v.036c0 .023.012.037.036.037v.035l.036.037v.108l.072.072v.073l.036.036v.037h.036v.07h.036c0 .024.012.036.036.036v.038l.144.145v.473l.037.036v.073c.022 0 .035.012.035.036l.036.035v.036l.036.036v.037h.037v.073c.023 0 .036.013.036.036l.036.035v.037h.036v.036l.072.074c0 .022.012.035.035.035v.037h.037v.036l.108.145v.255c.023.024.047.036.07.036v14.077h-.108v.035c-.024 0-.036.013-.036.037l-.035.072h-.072v.037l-.036.035v.037h-.036v.073h-.503v-.582l.072-.073c.024 0 .037-.01.037-.036h.036v-.043h.035v-.036h.037V14.326h-.072l-.036-.036v-.02l-.037-.036v-.037h-.036v-.037l-.036-.036v-.037l-.036-.035v-.073l-.036-.036v-.037h-.037v-.072h-.036v-.036l-.036-.037h-.036c0-.024-.012-.035-.037-.035v-.073a.03.03 0 0 0-.035-.035v-.038h-.038v-.072c-.023 0-.036-.012-.036-.037s-.012-.035-.035-.035V13.4h-.037v-.04l-.036-.073c0-.022-.012-.036-.036-.036v-.036l-.108-.07v-.037h-.035v-.072c-.024 0-.036-.014-.036-.037l-.036-.035v-.037h-.036V12.9c-.024-.025-.048-.036-.07-.036v-.037h-.037v-.036c-.024 0-.036-.013-.036-.036v-.072c-.023 0-.036-.013-.036-.037L9.32 12.6v-.036h-.035l-.108-.145v-.038c-.023 0-.035-.012-.035-.036h-.037v17.73l-.143.037c-.048.024-.097.06-.145.108H8.78c-.575.315-1.113.534-1.617.654-.6.194-1.173.315-1.725.363-.503.097-.994.12-1.473.073l-1.22-.182c-.8-.17-1.4-.375-1.832-.618l-.503-.254c-.168-.073-.25-.12-.25-.146l-.108-.037V12.308c-.095-.195-.06-.4.108-.618 0-.024.012-.05.035-.072a.68.68 0 0 1 .216-.036v-.038c.12-.047.276-.084.467-.107l.826-.074a4.6 4.6 0 0 1 .61-.108l.36-.035c-.023-.22-.023-.388 0-.51l.11-.182.107-.146v-1.6h-.036c-.12 0-.25-.012-.395-.037h-.502v-.508h.035V8.2h.07c-.048-.072-.048-.182 0-.327 0-.072.048-.193.144-.362.072-.17.192-.267.36-.29h4.24l.18.072v.146c.144-.29.323-.545.54-.763v-.11h.107c0-.023.012-.035.037-.035v.035h.36v.4l.036.036v.036h.18v.036l.035.036v.1zM3.573 14.56c-.576.5-1.03 1.14-1.367 1.9-.478 1.042-.718 2.096-.718 3.16 0 .8.096 1.538.288 2.216.24.85.707 1.453 1.4 1.817.335.193.707.303 1.113.326-.694-.436-1.066-1.15-1.113-2.144-.048-.75.216-1.44.8-2.07.145-.123.24-.195.29-.22-.263.75.023 1.524.862 2.325a3.82 3.82 0 0 1 .897 1.416c.095.267.072.448-.072.546.312.12.635-.014.97-.4.014-.017.026-.034.036-.056.49-.306.8-.856.934-1.652.144-.944-.01-1.864-.467-2.76-.31-.654-.682-1.2-1.113-1.635-.528-.605-.886-1.32-1.078-2.144-.24-.896-.107-1.658.395-2.288l-2.047 1.67zM8.745 25.24v-.218l-4.06.436c-.79 0-2.203-.144-4.238-.436v1.343l4.3.544c.862 0 2.19-.17 3.987-.508v-1.16zM6.338 23.97h-.18v.037l.18-.037zm-.9.073v-.036c-.023 0-.036.012-.036.036h.036zm-1.58.11a1.45 1.45 0 0 1-.198-.036l-.018.036h.216z"/></svg>