<svg xmlns="http://www.w3.org/2000/svg" width="18.833" height="32" fill-rule="evenodd" fill="#fff"><path fill-opacity=".6" d="M15.826 7.595l.407.554c.172.224.308.285.406.186s0-.382-.295-.85c-.32-.493-.27-1.035.148-1.628.05.247.345.617.888 1.1.543.518.875 1.023 1 1.517.05.246.06.493.037.74-.05.37-.148.666-.295.888-.247.32-.382.53-.407.63-.075.173-.013.382.185.63.172.245.123.578-.148.998-.173.246-.567.715-1.183 1.405-.355.396-.88.618-1.573.666l.537-.887c.1 0 .16-.014.186-.038l1.1-1.517c.05-.1-.014-.26-.186-.48a5.75 5.75 0 0 0-.776-.704c-.32-.22-.617-.38-.888-.48-.295-.122-.47-.136-.518-.036l-1.1 1.517h.038c-.024.05-.024.123 0 .22l-1.128 1.35c-.036-.027-.067-.06-.093-.09-.198-.27-.382-.642-.555-1.1-.197-.666-.234-1.208-.11-1.627l.444-.815c.173-.345.173-.813 0-1.405l.407.148c.32.173.555.444.702.813.075.124.11.457.11 1 0 .418.01.555.037.406.295-.394.48-.8.554-1.22.025-.246-.135-.63-.48-1.147L12.463 7.3c-.148-.223-.2-.74-.186-1.553.025-.84.148-1.37.37-1.59.05.518.27.974.666 1.368.198.196.728.42 1.6.666.346.1.555.31.63.63.12.442.22.7.294.775z"/><path d="M14.975 10.33c.27.1.568.26.888.48a5.69 5.69 0 0 1 .776.704c.172.222.235.382.186.48l-1.1 1.517c-.025.024-.087.038-.186.038l-2.404 3.92c-.1.122-.2.803-.334 2.034-.147 1.208-.406 2.084-.776 2.626L5.58 31.157c-.197.172-.64.185-1.332.037-.74-.197-1.455-.543-2.144-1.037s-1.246-1.06-1.666-1.7c-.37-.593-.505-1.01-.407-1.26l6.437-9.062c.37-.544 1.1-1.072 2.22-1.59l1.11-.518c.346-.173.567-.32.667-.443.148-.224 1.122-1.406 2.922-3.553-.024-.098-.024-.17 0-.22h-.038l1.1-1.517c.048-.098.22-.084.517.038z"/></svg>