<svg xmlns="http://www.w3.org/2000/svg" width="12.333" height="32"><path fill-rule="evenodd" fill="#fff" d="M8.413 6.784l.036.036v.073c0 .025.013.036.036.036v.074h.037v.035c.024 0 .038.013.038.036v.1h.036v.073h.036v.073c.024 0 .037.012.037.035v.1l.036.036v.072l.035.04v.036h.038v.073l.036.036v.037c.025 0 .036.012.036.036v.036l.037.037v.11c0 .023.012.036.036.036v.037h.037v.108h.036v.037l.037.036v.037l.036.035v.074l.037.036v.107l.037.038v.037l.036.035v.037l.07.077v.035c.024 0 .037.014.037.037l.035.037v.182l.038.037v.072l.038.036v.036l.035.037v.037l.037.036v.072h.036v.074c0 .024.013.036.036.036v.108c.025 0 .037.013.037.037v.073c.024 0 .037.013.037.037v.072h.037v.036l.036.037v.036l.037.036v.037l.037.036v.146l.036.037v.072h.037v.108h.037v.073l.036.037v.037l.037.036v.073c.024 0 .036.01.036.035v.073c0 .024.012.037.037.037v.072l.036.036v.037h.038v.036l.036.037v.036l.037.036v.073h.037v.108l.037.036v.037c0 .023.01.036.036.036v.036l.037.037v.11l.072.072v.073l.037.037v.036h.036v.073h.037c0 .023.012.036.036.036v.036l.147.146v.474l.036.035v.074c.023 0 .035.012.035.035l.04.037v.036l.035.036v.036h.037v.075c.024 0 .037.01.037.035l.036.037v.035h.036v.037l.073.073c0 .023.012.036.037.036v.036h.037v.036l.11.146v.255c.024.025.047.036.073.036v14.12h-.11v.035c-.025 0-.037.013-.037.036l-.036.074h-.074v.035l-.042.032v.036h-.037v.072h-.51V27.6l.072-.072c.024 0 .037-.014.037-.037h.036v-.036h.036v-.036h.038v-13.5H10.6l-.036-.037v-.036l-.037-.036v-.02H10.5v-.036l-.037-.036v-.036l-.036-.037v-.072l-.037-.037V13.5h-.037v-.073h-.036v-.037l-.037-.036h-.036c0-.025-.012-.037-.037-.037v-.072c0-.025-.013-.036-.037-.036v-.037h-.037v-.073c-.023 0-.036-.012-.036-.035s-.013-.037-.038-.037v-.037h-.036v-.037l-.037-.074c0-.023-.012-.036-.036-.036v-.036l-.11-.072v-.037h-.034v-.072c-.024 0-.036-.014-.036-.037l-.037-.036v-.037h-.036v-.036c-.024-.024-.047-.036-.072-.036v-.037h-.038v-.036c-.023 0-.037-.013-.037-.037v-.074c-.023 0-.036-.013-.036-.037l-.035-.035v-.036h-.038l-.1-.146v-.036c-.023 0-.035-.013-.035-.036H9.25v17.782l-.146.036c-.048.024-.097.06-.145.11h-.036c-.583.315-1.13.534-1.64.655-.608.194-1.19.316-1.75.364a5.14 5.14 0 0 1-1.493.073L2.8 30.76c-.8-.17-1.42-.376-1.858-.62l-.5-.254c-.17-.074-.255-.122-.255-.146l-.11-.036v-17.82c-.097-.195-.06-.402.11-.62 0-.023.013-.048.036-.072a.74.74 0 0 1 .219-.036v-.036a1.84 1.84 0 0 1 .473-.109l.84-.073c.193-.048.4-.085.62-.11l.363-.036c-.024-.22-.024-.39 0-.5l.1-.183.11-.146V8.35H2.9c-.12 0-.255-.01-.4-.035H2v-.51h.036v-.037h.073c-.048-.072-.048-.182 0-.327 0-.073.048-.194.146-.365.072-.17.195-.267.365-.29h4.3l.18.07v.147c.146-.293.328-.547.547-.766V6.13h.1c0-.025.01-.036.036-.036v.036h.364v.4l.037.036v.036h.182v.036l.037.036v.1zm.474 18.074v-.22l-4.118.438c-.802 0-2.234-.145-4.3-.438v1.347l4.373.546c.873 0 2.224-.17 4.045-.51v-1.163z"/></svg>