<?xml version="1.0" encoding="utf-8"?>
<!-- Generator: Adobe Illustrator 16.0.0, SVG Export Plug-In . SVG Version: 6.00 Build 0)  -->
<!DOCTYPE svg PUBLIC "-//W3C//DTD SVG 1.1//EN" "http://www.w3.org/Graphics/SVG/1.1/DTD/svg11.dtd">
<svg version="1.1" xmlns="http://www.w3.org/2000/svg" xmlns:xlink="http://www.w3.org/1999/xlink" x="0px" y="0px"
	 width="19.833px" height="32px" viewBox="0 0 19.833 32" enable-background="new 0 0 19.833 32" xml:space="preserve">
<g id="Selected_Items">
	<g>
		<g id="Selected_Items_61_">
			<g>
				
					<rect x="5.987" y="8.875" fill-rule="evenodd" clip-rule="evenodd" fill="#FFFFFF" fill-opacity="0.4" width="10.156" height="3.064"/>
				<path fill-rule="evenodd" clip-rule="evenodd" fill="#FFFFFF" d="M16.143,8.875H5.987v3.064h10.156V8.875z M18.78,11.37h0.535
					c0.333,0,0.499,0.167,0.499,0.499v4.739c0,0.333-0.166,0.499-0.499,0.499H18.78v9.479c0,0.665-0.333,0.998-0.998,0.998H4.455
					c-0.665,0-0.998-0.333-0.998-0.998V7.842c0-0.665,0.333-0.998,0.998-0.998h4.668V6.167c0-0.071,0.036-0.107,0.107-0.107h0.463
					C9.764,6.06,9.8,6.096,9.8,6.167v0.677h7.982c0.665,0,0.998,0.333,0.998,0.998V11.37z M8.125,14.862v9.479h8.018v-9.479H8.125z"
					/>
			</g>
			<path fill-rule="evenodd" clip-rule="evenodd" fill="#FFFFFF" d="M10.619,21.989c0.095,0,0.143,0.048,0.143,0.143v0.891
				c0,0.071-0.047,0.107-0.143,0.107H9.657c-0.119,0-0.178-0.036-0.178-0.107v-0.891c0-0.095,0.059-0.143,0.178-0.143H10.619z
				 M12.722,21.989c0.119,0,0.178,0.048,0.178,0.143v0.891c0,0.071-0.06,0.107-0.178,0.107H11.76c-0.095,0-0.143-0.036-0.143-0.107
				v-0.891c0-0.095,0.048-0.143,0.143-0.143H12.722z M14.86,23.129h-0.962c-0.119,0-0.178-0.036-0.178-0.107v-0.891
				c0-0.095,0.06-0.143,0.178-0.143h0.962c0.119,0,0.178,0.048,0.178,0.143v0.891C15.038,23.093,14.979,23.129,14.86,23.129z
				 M15.038,20.1v0.891c0,0.071-0.06,0.107-0.178,0.107h-0.962c-0.119,0-0.178-0.036-0.178-0.107V20.1
				c0-0.119,0.06-0.178,0.178-0.178h0.962C14.979,19.922,15.038,19.981,15.038,20.1z M13.719,18.034c0-0.095,0.06-0.143,0.178-0.143
				h0.962c0.119,0,0.178,0.048,0.178,0.143v0.891c0,0.071-0.06,0.107-0.178,0.107h-0.962c-0.119,0-0.178-0.036-0.178-0.107V18.034z
				 M11.617,20.991V20.1c0-0.119,0.048-0.178,0.143-0.178h0.962c0.119,0,0.178,0.06,0.178,0.178v0.891
				c0,0.071-0.06,0.107-0.178,0.107H11.76C11.665,21.098,11.617,21.063,11.617,20.991z M9.479,20.991V20.1
				c0-0.119,0.059-0.178,0.178-0.178h0.962c0.095,0,0.143,0.06,0.143,0.178v0.891c0,0.071-0.047,0.107-0.143,0.107H9.657
				C9.538,21.098,9.479,21.063,9.479,20.991z M10.762,18.924c0,0.071-0.047,0.107-0.143,0.107H9.657
				c-0.119,0-0.178-0.036-0.178-0.107v-0.891c0-0.095,0.059-0.143,0.178-0.143h0.962c0.095,0,0.143,0.048,0.143,0.143V18.924z
				 M11.617,18.034c0-0.095,0.048-0.143,0.143-0.143h0.962c0.119,0,0.178,0.048,0.178,0.143v0.891c0,0.071-0.06,0.107-0.178,0.107
				H11.76c-0.095,0-0.143-0.036-0.143-0.107V18.034z M9.657,17c-0.119,0-0.178-0.048-0.178-0.143v-0.855
				c0-0.095,0.059-0.143,0.178-0.143h0.962c0.095,0,0.143,0.048,0.143,0.143v0.855c0,0.095-0.047,0.143-0.143,0.143H9.657z
				 M13.897,17c-0.119,0-0.178-0.048-0.178-0.143v-0.855c0-0.095,0.06-0.143,0.178-0.143h0.962c0.119,0,0.178,0.048,0.178,0.143
				v0.855c0,0.095-0.06,0.143-0.178,0.143H13.897z M12.9,16.857c0,0.095-0.06,0.143-0.178,0.143H11.76
				c-0.095,0-0.143-0.048-0.143-0.143v-0.855c0-0.095,0.048-0.143,0.143-0.143h0.962c0.119,0,0.178,0.048,0.178,0.143V16.857z"/>
			<path fill-rule="evenodd" clip-rule="evenodd" fill="#FFFFFF" d="M3.578,20.49c-0.428,0-1.048-0.066-1.404-0.114
				c-0.428-0.095-0.808-0.344-1.14-0.749c-0.333-0.403-0.594-1.104-0.784-2.102C0.083,16.575,0,15.209,0,13.427
				c0-0.475,0-0.974,0-1.497c0-0.546,0-1.104,0-1.675c0-0.475,0.06-1.045,0.178-1.71C0.297,7.904,0.511,7.25,0.82,6.585
				c0.047-0.119,0.106-0.238,0.178-0.356c0.119-0.214,0.297-0.404,0.535-0.57c0.261-0.19,0.476-0.356,0.642-0.499
				C2.768,4.756,3.54,4.53,4.49,4.483c0.286,0,0.499,0.012,0.642,0.036c0.618,0,1.199,0.036,1.746,0.107
				c0.594,0.071,1.069,0.178,1.425,0.321c0.642,0.214,0.9,0.356,1.057,0.512s0.219,0.328,0.219,0.328s0.094,0.359,0.094,0.406
				l-0.4,0.297c0-0.044,0-0.102,0-0.169c0-0.158-0.096-0.332-0.163-0.489C9.063,5.697,8.74,5.527,8.138,5.324
				C7.804,5.189,7.358,5.087,6.8,5.02C6.287,4.952,5.741,4.918,5.162,4.918C5.027,4.896,4.827,4.884,4.558,4.884
				C3.667,4.93,2.942,5.143,2.385,5.527C2.229,5.663,2.028,5.82,1.783,6.001C1.56,6.159,1.392,6.34,1.281,6.542
				C1.214,6.655,1.157,6.769,1.114,6.881C0.823,7.513,0.623,8.133,0.511,8.743C0.4,9.374,0.343,9.916,0.343,10.367
				c0,0.542,0,1.071,0,1.591c0,0.496,0,0.97,0,1.421c0,1.692,0.079,2.99,0.234,3.893c0.179,0.947,0.425,1.613,0.737,1.996
				c0.311,0.384,0.668,0.621,1.07,0.711c0.334,0.045,0.776,0.089,1.178,0.089L3.578,20.49z"/>
		</g>
	</g>
</g>
<g id="guides">
</g>
</svg>
