<?xml version="1.0" encoding="utf-8"?>
<!-- Generator: Adobe Illustrator 16.0.0, SVG Export Plug-In . SVG Version: 6.00 Build 0)  -->
<!DOCTYPE svg PUBLIC "-//W3C//DTD SVG 1.1//EN" "http://www.w3.org/Graphics/SVG/1.1/DTD/svg11.dtd">
<svg version="1.1" xmlns="http://www.w3.org/2000/svg" xmlns:xlink="http://www.w3.org/1999/xlink" x="0px" y="0px" width="27.5px"
	 height="32px" viewBox="0 0 27.5 32" enable-background="new 0 0 27.5 32" xml:space="preserve">
<g id="Selected_Items">
	<g>
		<g id="Selected_Items_60_">
			<path fill-rule="evenodd" clip-rule="evenodd" fill="#FFFFFF" d="M27.344,13.253v0.827c0,0.06-0.02,0.108-0.059,0.147
				c-0.06,0.119-0.157,0.227-0.295,0.324c-0.118,0.1-0.256,0.168-0.414,0.207c-0.178,0.059-0.345,0.079-0.501,0.059
				c-0.198-0.039-0.395-0.126-0.591-0.266c-1.28-0.846-2.452-1.477-3.514-1.889c-1.063-0.395-2.058-0.64-2.983-0.739
				c-0.846-0.019-1.614,0.01-2.304,0.089c-0.649,0.099-1.249,0.188-1.801,0.267c-0.394,0.079-0.778,0.118-1.152,0.118
				c-0.374,0.019-0.747,0.029-1.122,0.029h-0.177c-0.216-0.098-0.432-0.188-0.649-0.267c-0.158-0.079-0.336-0.137-0.532-0.177
				c-0.196-0.06-0.343-0.108-0.442-0.147c-0.099,0.157-0.188,0.305-0.267,0.443c-0.078,0.118-0.196,0.216-0.353,0.295
				c0.078,0.138,0.246,0.404,0.5,0.797c0.257,0.354,0.502,0.689,0.739,1.003c-0.019,0.041-0.019,0.07,0,0.091
				c0,0.058,0.04,0.087,0.119,0.087l0.885,0.739c0.216,0,0.216,0.107,0,0.325c-0.059,0.059-0.097,0.088-0.118,0.088
				c-0.019,0-0.078-0.029-0.177-0.088l-0.443-0.325c0.178,0.532,0.307,1.072,0.384,1.624c0.059,0.552,0.138,1.171,0.236,1.86
				c0.295,1.438,0.828,2.746,1.595,3.927c0.768,1.182,1.812,2.195,3.13,3.042c0.198,0.158,0.325,0.295,0.384,0.413
				c0.019,0.138,0.03,0.256,0.03,0.355v0.177c0,0.158-0.03,0.295-0.089,0.413c-0.059,0.138-0.137,0.236-0.236,0.295
				c0,0.099-0.03,0.207-0.089,0.325c-0.079,0.099-0.246,0.147-0.501,0.147c-0.158,0.178-0.453,0.118-0.886-0.178l-0.147-0.088
				c-1.595-1.005-2.864-2.166-3.81-3.484c-0.924-1.339-1.584-2.805-1.978-4.399c-0.078-0.631-0.138-1.191-0.178-1.684
				c-0.078-0.492-0.118-0.955-0.118-1.388c-0.098-0.315-0.157-0.631-0.177-0.945c-0.018-0.335-0.048-0.57-0.088-0.708L8.83,14.641
				l-0.591-0.974c-0.197-0.197-0.354-0.384-0.472-0.562c-0.137-0.177-0.246-0.324-0.325-0.442c-0.118-0.118-0.177-0.197-0.177-0.236
				c-0.078-0.04-0.245-0.107-0.501-0.206c-0.236-0.12-0.483-0.228-0.739-0.326c-0.314-0.118-0.659-0.245-1.034-0.383L0.147,7.554
				L0,7.348C0,7.269,0.05,7.23,0.147,7.23V7.082c0-0.099,0.099-0.147,0.295-0.147L5.61,8.913c0.079,0.059,0.118,0.128,0.118,0.206
				c0.02,0.08,0.031,0.157,0.031,0.236c0,0.296,0.049,0.443,0.147,0.443C6.103,9.857,6.25,9.848,6.349,9.77
				c0.079-0.04,0.138-0.079,0.177-0.118V9.504l0.561-0.739c0.079-0.137,0.089-0.246,0.03-0.324C7.019,8.4,6.929,8.381,6.85,8.381
				L6.674,8.44c-0.098,0-0.196,0-0.296,0C6.259,8.42,6.201,8.371,6.201,8.293L2.893,3.922V3.567h0.443l4.4,3.072h0.177
				C8.229,7.071,8.504,7.455,8.74,7.791c0.217,0.295,0.413,0.571,0.591,0.826C9.547,8.854,9.675,8.991,9.715,9.03
				c0.098,0.039,0.296,0.099,0.591,0.178c0.274,0.098,0.57,0.187,0.885,0.266c0.335,0.099,0.649,0.178,0.945,0.236
				c0.275,0.06,0.433,0.089,0.472,0.089c0.197,0,0.789-0.05,1.772-0.147c0.945-0.1,2.224-0.147,3.838-0.147
				c0.945,0,1.723,0.029,2.332,0.088c0.612,0.079,1.212,0.236,1.802,0.473c0.591,0.256,1.25,0.61,1.98,1.063
				c0.727,0.472,1.663,1.11,2.804,1.918C27.236,13.105,27.304,13.175,27.344,13.253z M12.431,13.461l1.211,0.472
				c0.098,0,0.147,0.098,0.147,0.295c-0.078,0-0.127,0.02-0.147,0.06c-0.02,0.038-0.07,0.02-0.148-0.06l-1.181-0.295
				c-0.098,0-0.157-0.03-0.177-0.089c0-0.079,0-0.138,0-0.177c0-0.119,0.039-0.178,0.117-0.178
				C12.313,13.47,12.372,13.461,12.431,13.461z M12.608,13.046c0-0.077,0.02-0.127,0.059-0.146c0.02-0.042,0.049-0.061,0.088-0.061
				l1.211,0.206c0.079,0,0.158,0.029,0.237,0.09c0.058,0.058,0.088,0.117,0.088,0.177c0,0.079-0.03,0.128-0.088,0.148
				c-0.08,0-0.159,0-0.237,0l-1.211-0.148C12.658,13.313,12.608,13.225,12.608,13.046z M13.228,14.996
				c-0.117,0-0.206,0.01-0.265,0.029c-0.04,0.039-0.059,0.029-0.059-0.029l-1.064-0.622c-0.097,0-0.147-0.097-0.147-0.294
				c0.079,0,0.128-0.02,0.147-0.059c0.021-0.039,0.081-0.021,0.177,0.059l1.005,0.561c0.118,0,0.188,0.04,0.206,0.118
				C13.228,14.838,13.228,14.917,13.228,14.996z"/>
		</g>
	</g>
</g>
<g id="guides">
</g>
</svg>
