<?xml version="1.0" encoding="utf-8"?>
<!-- Generator: Adobe Illustrator 16.0.0, SVG Export Plug-In . SVG Version: 6.00 Build 0)  -->
<!DOCTYPE svg PUBLIC "-//W3C//DTD SVG 1.1//EN" "http://www.w3.org/Graphics/SVG/1.1/DTD/svg11.dtd">
<svg version="1.1" xmlns="http://www.w3.org/2000/svg" xmlns:xlink="http://www.w3.org/1999/xlink" x="0px" y="0px"
	 width="25.458px" height="32px" viewBox="0 0 25.458 32" enable-background="new 0 0 25.458 32" xml:space="preserve">
<g id="Selected_Items">
	<g>
		<g id="Selected_Items_55_">
			<path fill-rule="evenodd" clip-rule="evenodd" fill="#FFFFFF" fill-opacity="0.302" d="M19.192,7.81l5.917,0.906l-6.023,4.121
				l5.695,4.542l-5.319,0.705l1.238,6.83l-2.734-1.576l0.011-10.596l-3.441-5.741h-4.232c-0.385,0-0.641,0.038-0.77,0.116
				c-0.231,0.102-0.347,0.32-0.347,0.654c0,0.513,0.308,0.808,0.924,0.885v1.539l-1.156,1H8.417c-0.359,0-0.54,0.179-0.54,0.539
				l0.38,2.323l0.641,0.945l-0.136,1.851h0.423V18.7H8.763v0.731l0.045,0.533l0.067,0.449L2.88,23.023l2.458-6.787L0,13.574
				l5.76-2.34L1.647,5.016L8.91,6.015l1.349-5.625l3.69,5.175l6.03-2.97L19.192,7.81z M17.345,13.274v9.736l-3.002-1.854l0.135-0.99
				l0.268-0.741l-0.067-0.608l-0.304-0.169v-1.855l0.472-0.338l-0.27-1.519l1.161-0.754l-0.082-2.013L17.345,13.274z"/>
			<path fill-rule="evenodd" clip-rule="evenodd" fill="#FFFFFF" d="M17.276,13.185l-1.54-0.886v1.81l-0.923,0.847v1.808h-0.384
				v1.848h0.384v1.924h-0.384v1.848h0.384v1.924h-0.384v1.848h0.384v1.771l0.923,1.578v1.308c0,0.36-0.18,0.539-0.539,0.539h-6.85
				c-0.359,0-0.54-0.179-0.54-0.539v-1.308l0.885-1.578v-1.771h0.424v-1.848H8.693v-1.924h0.424v-1.848H8.693V18.61h0.424v-1.848
				H8.693v-1.808l-0.885-0.847v-2.464c0-0.359,0.181-0.538,0.54-0.538h0.538l1.155-1.001v-1.54C9.425,8.488,9.118,8.194,9.118,7.682
				c0-0.333,0.115-0.553,0.346-0.655c0.128-0.077,0.385-0.115,0.77-0.115h4.232l3.58,5.734v12.122l-1.809,0.886
				c-0.257,0.128-0.45,0.09-0.577-0.116c-0.129-0.23-0.078-0.448,0.153-0.653c0.206-0.18,0.514-0.386,0.923-0.616l0.54-0.27V13.185z
				"/>
		</g>
	</g>
</g>
<g id="guides">
</g>
</svg>
