<?xml version="1.0" encoding="utf-8"?>
<!-- Generator: Adobe Illustrator 16.0.0, SVG Export Plug-In . SVG Version: 6.00 Build 0)  -->
<!DOCTYPE svg PUBLIC "-//W3C//DTD SVG 1.1//EN" "http://www.w3.org/Graphics/SVG/1.1/DTD/svg11.dtd">
<svg version="1.1" xmlns="http://www.w3.org/2000/svg" xmlns:xlink="http://www.w3.org/1999/xlink" x="0px" y="0px"
	 width="12.375px" height="32px" viewBox="0 0 12.375 32" enable-background="new 0 0 12.375 32" xml:space="preserve">
<g id="Selected_Items">
	<g>
		<g id="Selected_Items_54_">
			<path fill-rule="evenodd" clip-rule="evenodd" fill="#FFFFFF" d="M8.277,7.221l0.037,0.037V7.33c0,0.022,0.012,0.035,0.036,0.035
				v0.073h0.036v0.037c0.023,0,0.036,0.012,0.036,0.036V7.62h0.036v0.073h0.036v0.073c0.024,0,0.036,0.012,0.036,0.035v0.109
				l0.036,0.036V8.02l0.036,0.036v0.038h0.037v0.071l0.035,0.036v0.037c0.024,0,0.037,0.012,0.037,0.036v0.037l0.036,0.035v0.109
				c0,0.023,0.012,0.036,0.036,0.036v0.037h0.036v0.108h0.036v0.036l0.036,0.037v0.035l0.036,0.037v0.072l0.037,0.037V9l0.035,0.037
				v0.037l0.036,0.035v0.037l0.072,0.072v0.037c0.023,0,0.036,0.012,0.036,0.036l0.035,0.036V9.51l0.036,0.036v0.072l0.036,0.037
				v0.036l0.036,0.036v0.036L9.319,9.8v0.073h0.036v0.072c0,0.023,0.013,0.036,0.036,0.036v0.109c0.024,0,0.036,0.013,0.036,0.036
				v0.072c0.023,0,0.036,0.014,0.036,0.037v0.072H9.5v0.036l0.035,0.036v0.037l0.036,0.037v0.035l0.036,0.037v0.146l0.036,0.036
				v0.073h0.036v0.108h0.036v0.072l0.036,0.036v0.036l0.036,0.036v0.073c0.024,0,0.036,0.013,0.036,0.036v0.072
				c0,0.024,0.012,0.037,0.036,0.037v0.071l0.037,0.038v0.036H9.93v0.035l0.036,0.037v0.035l0.037,0.038v0.072h0.035v0.108
				l0.037,0.037v0.036c0,0.023,0.012,0.037,0.036,0.037v0.035l0.036,0.037v0.108l0.072,0.072v0.073l0.036,0.036v0.037h0.036v0.071
				h0.036c0,0.024,0.012,0.036,0.036,0.036v0.038l0.144,0.145v0.473l0.037,0.036v0.073c0.022,0,0.035,0.012,0.035,0.036l0.036,0.035
				v0.036l0.036,0.036v0.037h0.037v0.073c0.023,0,0.036,0.013,0.036,0.036l0.036,0.035v0.037h0.036v0.036l0.072,0.074
				c0,0.022,0.012,0.035,0.035,0.035v0.037h0.037v0.036l0.108,0.145v0.255c0.023,0.024,0.047,0.036,0.071,0.036v0.473
				c0,0.097,0,0.169,0,0.218c0,0.073,0,0.145,0,0.218v0.182c0,0.072,0,0.145,0,0.219v0.181c0,0.097,0,0.182,0,0.255
				c0,0.048,0,0.12,0,0.218c0,0.048,0,0.121,0,0.218c0,0.049,0,0.108,0,0.182v0.036c0,0.049,0,0.11,0,0.182c0,0.049,0,0.122,0,0.218
				c0,0.048,0,0.121,0,0.219c0,0.048,0,0.109,0,0.182s0,0.145,0,0.217c0,0.073,0,0.146,0,0.219s0,0.146,0,0.218
				c0,0.073,0,0.134,0,0.182c0,0.098,0,0.17,0,0.219c0,0.072,0,0.145,0,0.217c0,0.073,0,0.146,0,0.219s0,0.134,0,0.183
				c0,0.096,0,0.168,0,0.217c0,0.072,0,0.146,0,0.219c0,0.072,0,0.145,0,0.218s0,0.145,0,0.218s0,0.146,0,0.218
				c0,0.048,0,0.121,0,0.219c0,0.047,0,0.12,0,0.217c0,0.05,0,0.109,0,0.183s0,0.145,0,0.219c0,0.047,0,0.119,0,0.217
				c0,0.048,0,0.121,0,0.219c0,0.048,0,0.108,0,0.182c0,0.071,0,0.145,0,0.218c0,0.072,0,0.146,0,0.218c0,0.073,0,0.146,0,0.219
				c0,0.072,0,0.132,0,0.181c0,0.097,0,0.169,0,0.218c0,0.073,0,0.146,0,0.218s0,0.146,0,0.218c0,0.074,0,0.133,0,0.183
				c0,0.096,0,0.169,0,0.217c0,0.073,0,0.146,0,0.219c0,0.073,0,0.146,0,0.218s0,0.146,0,0.219c0,0.071,0,0.145,0,0.218
				c0,0.049,0,0.121,0,0.218c0,0.049,0,0.121,0,0.218c0,0.049,0,0.109,0,0.182s0,0.146,0,0.218c0,0.05,0,0.121,0,0.219
				c0,0.047,0,0.121,0,0.218c0,0.049,0,0.108,0,0.182s0,0.146,0,0.218s0,0.146,0,0.218c0,0.073,0,0.146,0,0.219s0,0.133,0,0.182
				c0,0.096,0,0.169,0,0.218c0,0.072,0,0.146,0,0.218c0,0.073,0,0.145,0,0.218s0,0.134,0,0.181c0,0.098,0,0.17,0,0.219
				c0,0.073,0,0.146,0,0.218c0,0.073,0,0.158,0,0.255v0.073c-0.024,0-0.06,0-0.108,0v0.035c-0.024,0-0.036,0.013-0.036,0.037
				l-0.035,0.072h-0.072v0.037l-0.036,0.035v0.037h-0.036v0.073c-0.167,0-0.335,0-0.503,0v-0.582l0.072-0.073
				c0.024,0,0.037-0.011,0.037-0.036h0.036V27.82h0.035v-0.036h0.037c0-0.073,0-0.133,0-0.182c0-0.072,0-0.121,0-0.146
				c0-0.072,0-0.145,0-0.217c0-0.073,0-0.146,0-0.218c0-0.073,0-0.146,0-0.218c0-0.073,0-0.146,0-0.219c0-0.048,0-0.121,0-0.217
				c0-0.05,0-0.11,0-0.182c0-0.072,0-0.146,0-0.22c0-0.072,0-0.145,0-0.217c0-0.05,0-0.121,0-0.219c0-0.048,0-0.108,0-0.181
				c0-0.073,0-0.146,0-0.218c0-0.073,0-0.146,0-0.218c0-0.074,0-0.146,0-0.219s0-0.134,0-0.182c0-0.098,0-0.171,0-0.219
				c0-0.097,0-0.169,0-0.218c0-0.072,0-0.144,0-0.218c0-0.072,0-0.134,0-0.182c0-0.097,0-0.17,0-0.219c0-0.097,0-0.169,0-0.217
				c0-0.072,0-0.146,0-0.219c0-0.071,0-0.146,0-0.218s0-0.146,0-0.218s0-0.146,0-0.218c0-0.049,0-0.121,0-0.218
				c0-0.049,0-0.109,0-0.182c0-0.073,0-0.146,0-0.219s0-0.145,0-0.218c0-0.048,0-0.122,0-0.218c0-0.048,0-0.108,0-0.182
				c0-0.074,0-0.146,0-0.219c0-0.097,0-0.169,0-0.218c0-0.072,0-0.146,0-0.218s0-0.133,0-0.181c0-0.098,0-0.171,0-0.22
				c0-0.096,0-0.169,0-0.218c0-0.072,0-0.145,0-0.216c0-0.074,0-0.135,0-0.183c0-0.098,0-0.182,0-0.254c0-0.074,0-0.146,0-0.219
				c0-0.048,0-0.121,0-0.218c0-0.049,0-0.109,0-0.181c0-0.074,0-0.147,0-0.22s0-0.145,0-0.218c0-0.049,0-0.121,0-0.218
				c0-0.049,0-0.108,0-0.182s0-0.145,0-0.218s0-0.146,0-0.218c0-0.073,0-0.146,0-0.218s0-0.134,0-0.183c0-0.098,0-0.169,0-0.219
				c0-0.096,0-0.169,0-0.217c0-0.072,0-0.146,0-0.219c0-0.072,0-0.132,0-0.181c0-0.097,0-0.171,0-0.218c0-0.098,0-0.169,0-0.219
				c0-0.072,0-0.146,0-0.218s0-0.146,0-0.218c0-0.073,0-0.146,0-0.219c0-0.071,0-0.145,0-0.218c0-0.048,0-0.121,0-0.219
				c0-0.048,0-0.108,0-0.182v-0.035c-0.024,0-0.048,0-0.072,0l-0.036-0.036V14.27l-0.037-0.036v-0.037h-0.036V14.16l-0.036-0.036
				v-0.037l-0.036-0.035v-0.073l-0.036-0.036v-0.037h-0.037v-0.072h-0.036v-0.036l-0.036-0.037h-0.036
				c0-0.024-0.012-0.035-0.037-0.035v-0.073c0-0.024-0.011-0.035-0.035-0.035v-0.038H9.966v-0.072c-0.023,0-0.036-0.012-0.036-0.037
				c0-0.023-0.012-0.035-0.035-0.035v-0.036H9.858V13.36l-0.036-0.073c0-0.022-0.012-0.036-0.036-0.036v-0.036l-0.108-0.071v-0.037
				H9.643v-0.072c-0.024,0-0.036-0.014-0.036-0.037l-0.036-0.035v-0.037H9.535v-0.036c-0.024-0.025-0.048-0.036-0.071-0.036v-0.037
				H9.427v-0.036c-0.024,0-0.036-0.013-0.036-0.036v-0.072c-0.023,0-0.036-0.013-0.036-0.037l-0.036-0.036v-0.036H9.284
				l-0.108-0.145v-0.038c-0.023,0-0.035-0.012-0.035-0.036H9.104v17.729l-0.143,0.037c-0.048,0.024-0.097,0.06-0.145,0.108H8.781
				c-0.575,0.315-1.113,0.534-1.617,0.654c-0.599,0.194-1.173,0.315-1.725,0.363c-0.503,0.097-0.994,0.121-1.473,0.073
				c-0.454-0.049-0.861-0.109-1.22-0.182c-0.79-0.17-1.401-0.375-1.832-0.618c-0.216-0.097-0.383-0.181-0.503-0.254
				c-0.168-0.073-0.251-0.121-0.251-0.146l-0.108-0.037V12.308c-0.095-0.195-0.06-0.4,0.108-0.618c0-0.024,0.012-0.049,0.035-0.072
				c0.072-0.024,0.144-0.036,0.216-0.036v-0.038c0.12-0.047,0.276-0.084,0.467-0.107c0.191-0.024,0.467-0.049,0.826-0.074
				c0.191-0.048,0.395-0.084,0.61-0.108c0.167-0.023,0.287-0.035,0.359-0.035c-0.023-0.219-0.023-0.388,0-0.509
				c0.048-0.072,0.084-0.134,0.109-0.182l0.107-0.146V8.783H2.853c-0.12,0-0.251-0.012-0.395-0.037c-0.168,0-0.335,0-0.502,0V8.238
				h0.035V8.201c0.023,0,0.048,0,0.071,0c-0.048-0.072-0.048-0.182,0-0.327c0-0.072,0.048-0.193,0.144-0.362
				c0.072-0.169,0.192-0.267,0.359-0.291h4.239l0.18,0.072v0.146c0.144-0.289,0.323-0.545,0.539-0.763V6.64c0-0.023,0-0.048,0-0.073
				c0.023,0,0.06,0,0.107,0c0-0.023,0.012-0.035,0.037-0.035v0.035c0.12,0,0.239,0,0.359,0v0.4l0.036,0.036v0.036
				c0.047,0,0.108,0,0.18,0v0.036l0.035,0.036V7.221z M3.573,14.559c-0.576,0.51-1.031,1.141-1.367,1.89
				c-0.478,1.042-0.718,2.096-0.718,3.161c0,0.8,0.096,1.538,0.288,2.216c0.239,0.849,0.707,1.453,1.401,1.817
				c0.335,0.193,0.707,0.303,1.113,0.326c-0.694-0.436-1.066-1.15-1.113-2.144c-0.048-0.751,0.216-1.441,0.79-2.069
				c0.145-0.123,0.241-0.195,0.289-0.219c-0.263,0.751,0.023,1.524,0.862,2.325c0.407,0.411,0.707,0.884,0.897,1.416
				c0.095,0.267,0.072,0.448-0.072,0.546c0.312,0.121,0.635-0.014,0.97-0.399c0.014-0.017,0.026-0.034,0.036-0.056
				c0.489-0.306,0.8-0.856,0.934-1.652c0.144-0.944-0.011-1.864-0.467-2.761c-0.311-0.654-0.682-1.199-1.113-1.635
				C5.775,16.716,5.417,16,5.225,15.177c-0.24-0.896-0.107-1.658,0.395-2.288C4.948,13.397,4.267,13.955,3.573,14.559z
				 M8.745,25.241c0-0.023,0-0.062,0-0.108v-0.11c-1.94,0.292-3.292,0.436-4.059,0.436c-0.791,0-2.203-0.144-4.238-0.436
				c0,0.025,0,0.049,0,0.073s0,0.048,0,0.072v0.51c0,0.022,0,0.048,0,0.072c0,0.023,0,0.048,0,0.072v0.072c0,0.024,0,0.049,0,0.072
				c0,0.024,0,0.05,0,0.073c0,0.024,0,0.048,0,0.074v0.072c0,0.023,0,0.047,0,0.071s0,0.049,0,0.072v0.038
				c2.06,0.362,3.497,0.544,4.31,0.544c0.862,0,2.191-0.17,3.987-0.508v-0.4c0-0.024,0-0.048,0-0.072v-0.037
				c0-0.048,0-0.085,0-0.108c0-0.024,0-0.048,0-0.073v-0.035c0-0.024,0-0.049,0-0.073s0-0.062,0-0.108v-0.038
				c0-0.024,0-0.048,0-0.071c0-0.025,0-0.049,0-0.072C8.745,25.289,8.745,25.265,8.745,25.241z M6.338,23.969h-0.18v0.037
				L6.338,23.969z M5.439,24.042v-0.036c-0.023,0-0.036,0.012-0.036,0.036H5.439z M3.859,24.151c-0.07-0.008-0.136-0.02-0.198-0.036
				l-0.018,0.036C3.716,24.151,3.788,24.151,3.859,24.151z"/>
		</g>
	</g>
</g>
<g id="guides">
</g>
</svg>
