<?xml version="1.0" encoding="utf-8"?>
<!-- Generator: Adobe Illustrator 16.0.0, SVG Export Plug-In . SVG Version: 6.00 Build 0)  -->
<!DOCTYPE svg PUBLIC "-//W3C//DTD SVG 1.1//EN" "http://www.w3.org/Graphics/SVG/1.1/DTD/svg11.dtd">
<svg version="1.1" xmlns="http://www.w3.org/2000/svg" xmlns:xlink="http://www.w3.org/1999/xlink" x="0px" y="0px"
	 width="12.333px" height="32px" viewBox="0 0 12.333 32" enable-background="new 0 0 12.333 32" xml:space="preserve">
<g id="Selected_Items">
	<g>
		<g id="Selected_Items_59_">
			<path fill-rule="evenodd" clip-rule="evenodd" fill="#FFFFFF" d="M8.413,6.784L8.449,6.82v0.073c0,0.025,0.013,0.036,0.036,0.036
				v0.074h0.037v0.035c0.024,0,0.038,0.013,0.038,0.036v0.11h0.036v0.073h0.036v0.073c0.024,0,0.037,0.012,0.037,0.035v0.11
				l0.036,0.036v0.072L8.74,7.622v0.036h0.038v0.073l0.036,0.036v0.037c0.025,0,0.036,0.012,0.036,0.036v0.036l0.037,0.037v0.109
				c0,0.023,0.012,0.036,0.036,0.036v0.037h0.037v0.108h0.036v0.037l0.037,0.036v0.037l0.036,0.035v0.074l0.037,0.036v0.107
				l0.037,0.038v0.037l0.036,0.035v0.037L9.25,8.789v0.035c0.024,0,0.037,0.014,0.037,0.037l0.035,0.037V9.08L9.36,9.117v0.072
				l0.038,0.036v0.036l0.035,0.037v0.037L9.47,9.371v0.072h0.036v0.074c0,0.024,0.013,0.036,0.036,0.036v0.108
				c0.025,0,0.037,0.013,0.037,0.037v0.073c0.024,0,0.037,0.013,0.037,0.037v0.072h0.037v0.036l0.036,0.037v0.036l0.037,0.036v0.037
				l0.037,0.036v0.146l0.036,0.037v0.072h0.037v0.108h0.037v0.073l0.036,0.037v0.037l0.037,0.036v0.073
				c0.024,0,0.036,0.011,0.036,0.035v0.073c0,0.024,0.012,0.037,0.037,0.037v0.072l0.036,0.036v0.037h0.038v0.036l0.036,0.037v0.036
				l0.037,0.036v0.073h0.037v0.108l0.037,0.036v0.037c0,0.023,0.011,0.036,0.036,0.036v0.036l0.037,0.037v0.109l0.072,0.072v0.073
				l0.037,0.037v0.036h0.036v0.073h0.037c0,0.023,0.012,0.036,0.036,0.036v0.036l0.147,0.146v0.474l0.036,0.035v0.074
				c0.023,0,0.035,0.012,0.035,0.035l0.039,0.037v0.036l0.035,0.036v0.036h0.037v0.075c0.024,0,0.037,0.011,0.037,0.035l0.036,0.037
				v0.035h0.036v0.037l0.073,0.073c0,0.023,0.012,0.036,0.037,0.036v0.036h0.037v0.036l0.109,0.146v0.255
				c0.024,0.025,0.047,0.036,0.073,0.036v0.474c0,0.098,0,0.17,0,0.22c0,0.072,0,0.145,0,0.218v0.184c0,0.071,0,0.144,0,0.218v0.182
				c0,0.097,0,0.183,0,0.256c0,0.047,0,0.12,0,0.219c0,0.048,0,0.121,0,0.218c0,0.049,0,0.108,0,0.182v0.036c0,0.049,0,0.11,0,0.184
				c0,0.048,0,0.121,0,0.219c0,0.048,0,0.121,0,0.219c0,0.049,0,0.108,0,0.182c0,0.072,0,0.146,0,0.218c0,0.073,0,0.146,0,0.219
				c0,0.073,0,0.147,0,0.22c0,0.073,0,0.133,0,0.182c0,0.097,0,0.17,0,0.219c0,0.073,0,0.146,0,0.218c0,0.073,0,0.146,0,0.221
				c0,0.071,0,0.133,0,0.181c0,0.098,0,0.17,0,0.219c0,0.073,0,0.146,0,0.219c0,0.073,0,0.146,0,0.219c0,0.073,0,0.146,0,0.219
				s0,0.146,0,0.218c0,0.05,0,0.122,0,0.22c0,0.049,0,0.12,0,0.219c0,0.049,0,0.109,0,0.182c0,0.073,0,0.146,0,0.218
				c0,0.05,0,0.122,0,0.219c0,0.049,0,0.122,0,0.22c0,0.048,0,0.108,0,0.182s0,0.146,0,0.22c0,0.072,0,0.145,0,0.217
				c0,0.073,0,0.146,0,0.22s0,0.134,0,0.182c0,0.098,0,0.171,0,0.219c0,0.073,0,0.146,0,0.219c0,0.073,0,0.146,0,0.219
				c0,0.073,0,0.133,0,0.183c0,0.096,0,0.17,0,0.218c0,0.073,0,0.146,0,0.22c0,0.072,0,0.145,0,0.218s0,0.146,0,0.219
				c0,0.073,0,0.146,0,0.219c0,0.049,0,0.121,0,0.219c0,0.049,0,0.122,0,0.219c0,0.049,0,0.108,0,0.182c0,0.072,0,0.146,0,0.22
				c0,0.047,0,0.121,0,0.218c0,0.048,0,0.122,0,0.219c0,0.048,0,0.108,0,0.182c0,0.074,0,0.146,0,0.219c0,0.073,0,0.146,0,0.219
				c0,0.073,0,0.146,0,0.219c0,0.073,0,0.134,0,0.183c0,0.096,0,0.17,0,0.219c0,0.072,0,0.146,0,0.219c0,0.072,0,0.146,0,0.218
				c0,0.073,0,0.134,0,0.183c0,0.098,0,0.17,0,0.219c0,0.073,0,0.146,0,0.219c0,0.072,0,0.158,0,0.256v0.072
				c-0.025,0-0.061,0-0.109,0v0.035c-0.025,0-0.037,0.013-0.037,0.036l-0.036,0.074h-0.074v0.035L11,28.065v0.036h-0.037v0.072
				c-0.169,0-0.34,0-0.509,0v-0.583l0.072-0.072c0.024,0,0.037-0.014,0.037-0.037h0.036v-0.036h0.036v-0.036h0.038
				c0-0.073,0-0.135,0-0.183c0-0.072,0-0.121,0-0.146c0-0.073,0-0.145,0-0.218c0-0.072,0-0.147,0-0.22c0-0.071,0-0.146,0-0.219
				c0-0.072,0-0.146,0-0.218c0-0.049,0-0.123,0-0.219c0-0.049,0-0.109,0-0.184c0-0.072,0-0.145,0-0.219c0-0.072,0-0.146,0-0.218
				c0-0.048,0-0.121,0-0.219c0-0.048,0-0.108,0-0.182s0-0.146,0-0.219c0-0.072,0-0.146,0-0.22c0-0.071,0-0.145,0-0.219
				c0-0.072,0-0.133,0-0.181c0-0.098,0-0.171,0-0.219c0-0.097,0-0.171,0-0.219c0-0.073,0-0.146,0-0.22c0-0.071,0-0.133,0-0.181
				c0-0.098,0-0.171,0-0.22c0-0.097,0-0.17,0-0.218c0-0.073,0-0.146,0-0.22c0-0.072,0-0.145,0-0.219c0-0.072,0-0.145,0-0.219
				c0-0.072,0-0.145,0-0.218c0-0.048,0-0.122,0-0.219c0-0.049,0-0.109,0-0.182c0-0.073,0-0.146,0-0.219s0-0.146,0-0.219
				c0-0.049,0-0.121,0-0.22c0-0.049,0-0.108,0-0.182s0-0.146,0-0.219c0-0.097,0-0.17,0-0.218c0-0.074,0-0.146,0-0.22
				c0-0.072,0-0.133,0-0.182c0-0.097,0-0.17,0-0.219c0-0.097,0-0.17,0-0.218c0-0.073,0-0.146,0-0.219c0-0.073,0-0.135,0-0.183
				c0-0.097,0-0.182,0-0.256c0-0.072,0-0.145,0-0.218c0-0.05,0-0.122,0-0.219c0-0.049,0-0.109,0-0.182c0-0.073,0-0.146,0-0.22
				c0-0.072,0-0.145,0-0.218c0-0.049,0-0.121,0-0.218c0-0.051,0-0.11,0-0.184s0-0.146,0-0.219c0-0.072,0-0.146,0-0.22
				c0-0.071,0-0.144,0-0.218c0-0.072,0-0.133,0-0.182c0-0.098,0-0.17,0-0.22c0-0.097,0-0.169,0-0.218c0-0.073,0-0.146,0-0.218
				c0-0.073,0-0.135,0-0.183c0-0.097,0-0.171,0-0.219c0-0.097,0-0.171,0-0.219c0-0.073,0-0.146,0-0.219c0-0.073,0-0.146,0-0.218
				c0-0.073,0-0.146,0-0.22c0-0.072,0-0.145,0-0.218c0-0.049,0-0.122,0-0.22c0-0.048,0-0.108,0-0.182v-0.036
				c-0.025,0-0.05,0-0.074,0l-0.036-0.037v-0.036l-0.037-0.036V13.78H10.49v-0.036l-0.037-0.036v-0.036l-0.036-0.037v-0.072
				l-0.037-0.037v-0.036h-0.037v-0.073h-0.036V13.38l-0.037-0.036h-0.036c0-0.025-0.012-0.037-0.037-0.037v-0.072
				c0-0.025-0.013-0.036-0.037-0.036v-0.037h-0.037v-0.073c-0.023,0-0.036-0.012-0.036-0.035c0-0.025-0.013-0.037-0.038-0.037V12.98
				h-0.036v-0.037l-0.037-0.074c0-0.023-0.012-0.036-0.036-0.036v-0.036l-0.109-0.072v-0.037H9.797v-0.072
				c-0.024,0-0.036-0.014-0.036-0.037l-0.037-0.036v-0.037H9.688v-0.036c-0.024-0.024-0.047-0.036-0.072-0.036v-0.037H9.578v-0.036
				c-0.023,0-0.037-0.013-0.037-0.037V12.25c-0.023,0-0.036-0.013-0.036-0.037L9.47,12.178v-0.036H9.432l-0.11-0.146v-0.036
				c-0.023,0-0.035-0.013-0.035-0.036H9.25v17.782l-0.146,0.036c-0.048,0.024-0.097,0.061-0.145,0.109H8.923
				c-0.583,0.315-1.13,0.534-1.64,0.655c-0.608,0.194-1.189,0.316-1.75,0.364c-0.51,0.099-1.008,0.121-1.493,0.073
				c-0.461-0.049-0.875-0.109-1.239-0.182C2,30.591,1.38,30.385,0.943,30.142c-0.219-0.097-0.389-0.182-0.51-0.254
				c-0.17-0.074-0.255-0.122-0.255-0.146l-0.109-0.036V11.887c-0.097-0.195-0.061-0.402,0.109-0.621
				c0-0.023,0.013-0.048,0.036-0.072c0.074-0.023,0.147-0.036,0.219-0.036v-0.036c0.122-0.05,0.279-0.086,0.473-0.109
				c0.194-0.025,0.474-0.05,0.839-0.073c0.193-0.048,0.4-0.085,0.62-0.109c0.17-0.024,0.291-0.036,0.363-0.036
				c-0.024-0.219-0.024-0.389,0-0.51c0.048-0.073,0.086-0.134,0.11-0.183l0.109-0.146V8.351H2.91c-0.121,0-0.255-0.011-0.401-0.035
				c-0.17,0-0.34,0-0.51,0V7.805h0.036V7.768c0.024,0,0.048,0,0.073,0c-0.048-0.072-0.048-0.182,0-0.327
				c0-0.073,0.048-0.194,0.146-0.365c0.072-0.169,0.195-0.267,0.365-0.291h4.3L7.1,6.856v0.147c0.146-0.293,0.328-0.547,0.547-0.766
				V6.202c0-0.025,0-0.049,0-0.073c0.025,0,0.06,0,0.11,0c0-0.025,0.011-0.036,0.036-0.036v0.036c0.121,0,0.243,0,0.364,0V6.53
				l0.037,0.036v0.036c0.047,0,0.109,0,0.182,0v0.036l0.037,0.036V6.784z M8.887,24.858c0-0.025,0-0.062,0-0.109v-0.11
				c-1.967,0.293-3.341,0.438-4.118,0.438c-0.802,0-2.234-0.145-4.3-0.438c0,0.025,0,0.05,0,0.073c0,0.025,0,0.049,0,0.074v0.51
				c0,0.024,0,0.049,0,0.072c0,0.024,0,0.049,0,0.072v0.073c0,0.025,0,0.049,0,0.072c0,0.025,0,0.05,0,0.074s0,0.049,0,0.072v0.072
				c0,0.025,0,0.05,0,0.074s0,0.049,0,0.072v0.037c2.09,0.364,3.546,0.546,4.373,0.546c0.873,0,2.224-0.17,4.045-0.511v-0.4
				c0-0.023,0-0.048,0-0.072v-0.037c0-0.048,0-0.084,0-0.109c0-0.023,0-0.048,0-0.073v-0.035c0-0.025,0-0.049,0-0.073
				s0-0.061,0-0.109v-0.037c0-0.024,0-0.049,0-0.072c0-0.024,0-0.049,0-0.072C8.887,24.907,8.887,24.882,8.887,24.858z"/>
		</g>
	</g>
</g>
<g id="guides">
</g>
</svg>
